{"title":"Secret City - S01E05 - Ghosts In The Machine","uid":15108751,"size":383614466,"categoryP":"video","categoryS":"tv_shows","magnet":"?xt=urn:btih:a715033342107d42d5507844f65bd28d0170f340&amp;dn=Secret+City+-+S01E05+-+Ghosts+In+The+Machine&amp;tr=udp%3A%2F%2Ftracker.leechers-paradise.org%3A6969&amp;tr=udp%3A%2F%2Fzer0day.ch%3A1337&amp;tr=udp%3A%2F%2Fopen.demonii.com%3A1337&amp;tr=udp%3A%2F%2Ftracker.coppersurfer.tk%3A6969&amp;tr=udp%3A%2F%2Fexodus.desync.com%3A6969","seeders":14,"leechers":0,"uploader":"Bullrout","files":1,"time":1466988368,"description":"Secret City - S01E05 - Ghosts In The Machine\r\n\r\nDetermined to become hunter rather than prey, Harriet convinces ASIO agent Charles Dancer to pursue her attacker and the murderer while she investigates how a Chinese assassin can operate in Australia with apparent impunity.\r\n\r\nComplete name : Secret City - S01E05 - Ghosts In The Machine.mp4\r\nFormat : MPEG-4\r\nFormat profile : Base Media / Version 2\r\nCodec ID : mp42 (mp42/isom/avc1)\r\nFile size : 366 MiB\r\nDuration : 46mn 58s\r\nOverall bit rate mode : Variable\r\nOverall bit rate : 1 089 Kbps\r\n\r\n\r\nVideo\r\nID : 2\r\nFormat : AVC\r\nFormat/Info : Advanced Video Codec\r\nFormat profile :   \r\nFormat settings, CABAC : Yes\r\nFormat settings, ReFrames : 3 frames\r\nCodec ID : avc1\r\nCodec ID/Info : Advanced Video Coding\r\nDuration : 46mn 58s\r\nBit rate mode : Variable\r\nBit rate : 957 Kbps\r\nMaximum bit rate : 1 000 Kbps\r\nWidth : 720 pixels\r\nHeight : 360 pixels\r\nDisplay aspect ratio : 2.000\r\nFrame rate mode : Constant\r\nFrame rate : 25.000 fps\r\nStandard : PAL\r\nColor space : YUV\r\nChroma subsampling : 4:2:0\r\nBit depth : 8 bits\r\nScan type : Progressive\r\nBits/(Pixel*Frame) : 0.148\r\nStream size : 322 MiB (88%)\r\nWriting library : x264 core 112\r\nColor range : Limited\r\nColor primaries : BT.601 PAL\r\nTransfer characteristics : BT.470 System B, BT.470 System G\r\nMatrix coefficients : BT.601\r\n\r\nAudio\r\nID : 1\r\nFormat : AAC\r\nFormat/Info : Advanced Audio Codec\r\nFormat profile : LC\r\nCodec ID : 40\r\nDuration : 46mn 58s\r\nBit rate mode : Variable\r\nBit rate : 128 Kbps\r\nMaximum bit rate : 576 Kbps\r\nChannel(s) : 2 channels\r\nChannel positions : Front: L R\r\nSampling rate : 48.0 KHz\r\nFrame rate : 46.875 fps (1024 spf)\r\nCompression mode : Lossy\r\nStream size : 43.0 MiB (12%)","torrent":{"xt":"urn:btih:a715033342107d42d5507844f65bd28d0170f340","amp;dn":"Secret+City+-+S01E05+-+Ghosts+In+The+Machine","amp;tr":["udp%3A%2F%2Ftracker.leechers-paradise.org%3A6969","udp%3A%2F%2Fzer0day.ch%3A1337","udp%3A%2F%2Fopen.demonii.com%3A1337","udp%3A%2F%2Ftracker.coppersurfer.tk%3A6969","udp%3A%2F%2Fexodus.desync.com%3A6969"],"infoHash":"a715033342107d42d5507844f65bd28d0170f340","infoHashBuffer":{"type":"Buffer","data":[167,21,3,51,66,16,125,66,213,80,120,68,246,91,210,141,1,112,243,64]},"announce":[],"urlList":[]}}